<svg width="66" height="52" viewBox="0 0 66 52" fill="none" xmlns="http://www.w3.org/2000/svg">
<path d="M51.7833 23.6667H14.2167C12.9924 23.6667 12 24.6592 12 25.8834V26.1167C12 27.341 12.9924 28.3334 14.2167 28.3334H51.7833C53.0076 28.3334 54 27.341 54 26.1167V25.8834C54 24.6592 53.0076 23.6667 51.7833 23.6667Z" fill="white"/>
<path d="M51.7833 35.3333H14.2167C12.9924 35.3333 12 36.3257 12 37.5499V37.7833C12 39.0075 12.9924 39.9999 14.2167 39.9999H51.7833C53.0076 39.9999 54 39.0075 54 37.7833V37.5499C54 36.3257 53.0076 35.3333 51.7833 35.3333Z" fill="white"/>
<path d="M51.7833 12H14.2167C12.9924 12 12 12.9924 12 14.2167V14.45C12 15.6742 12.9924 16.6667 14.2167 16.6667H51.7833C53.0076 16.6667 54 15.6742 54 14.45V14.2167C54 12.9924 53.0076 12 51.7833 12Z" fill="white"/>
</svg>
